<svg width="70" height="72" viewBox="0 0 70 72" fill="none" xmlns="http://www.w3.org/2000/svg">
<path fill-rule="evenodd" clip-rule="evenodd" d="M4.71155 0H8.75001V6H4.71155V0ZM0 27.9998H4.03846V33.9998H0V27.9998ZM15.977 6.09H12.7627V0H47.1154V50.9716C45.0114 53.6562 43.6525 57.5936 43.5654 62H26.2986C26.1379 53.8689 21.6446 47.3264 16.1405 47.3264C10.6364 47.3264 6.14312 53.8687 5.98238 62H0V41.9327H11.4426C12.9044 41.9327 14.0937 40.1638 14.0937 37.9892C14.0937 35.8145 12.9044 34.0452 11.4426 34.0452H8.11283V27.9554H25.5363C26.9981 27.9554 28.1874 26.1861 28.1874 24.0115C28.1874 21.8368 26.9981 20.0675 25.5363 20.0675H0V13.9777H16.1405C17.6023 13.9777 18.7915 12.2086 18.7915 10.034C18.7915 7.93297 17.4762 6.09 15.977 6.09ZM47.7885 63C47.7885 58.0375 50.506 54 53.8461 54C57.1863 54 59.9038 58.0375 59.9038 63C59.9038 67.9625 57.1863 72 53.8461 72C50.506 72 47.7885 67.9625 47.7885 63ZM51.8042 66.0334H55.8881V59.966H51.8042V66.0334ZM51.1538 7.00031H59.3661L68.6538 28.0003H51.1538V7.00031ZM51.1538 34.0003V47.7729C51.9666 47.4667 52.8176 47.3032 53.6942 47.3032C59.2547 47.3032 63.794 53.8562 63.9563 62.0003H70V34.0003H51.1538ZM16.1538 54C12.8137 54 10.0962 58.0375 10.0962 63C10.0962 67.9625 12.8137 72 16.1538 72C19.494 72 22.2115 67.9625 22.2115 63C22.2115 58.0375 19.494 54 16.1538 54ZM18.1958 66.0334H14.1119V59.966H18.1958V66.0334Z" fill="#FDD6BA"/>
</svg>
